HIERARCHY
ROOT Hips
{
	OFFSET 0.000000 0.000000 0.000000 
	CHANNELS 6 Xposition Yposition Zposition Zrotation Yrotation Xrotation
	JOINT LeftUpLeg
	{
		OFFSET 1.363060 -1.794630 0.839290 
		CHANNELS 3 Zrotation Yrotation Xrotation
		JOINT LeftLeg
		{
			OFFSET 2.448110 -6.726130 0.000000 
			CHANNELS 3 Zrotation Yrotation Xrotation
			JOINT LeftFoot
			{
				OFFSET 2.562200 -7.039590 0.000000 
				CHANNELS 3 Zrotation Yrotation Xrotation
				JOINT LeftToeBase
				{
					OFFSET 0.157640 -0.433110 2.322550 
					CHANNELS 3 Zrotation Yrotation Xrotation
					End Site
					{
						OFFSET 0.000000 0.000000 0.000000 
					}
				}
			}
		}
	}
	JOINT RightUpLeg
	{
		OFFSET -1.305520 -1.794630 0.839290 
		CHANNELS 3 Zrotation Yrotation Xrotation
		JOINT RightLeg
		{
			OFFSET -2.542530 -6.985550 0.000000 
			CHANNELS 3 Zrotation Yrotation Xrotation
			JOINT RightFoot
			{
				OFFSET -2.568260 -7.056230 0.000000 
				CHANNELS 3 Zrotation Yrotation Xrotation
				JOINT RightToeBase
				{
					OFFSET -0.164730 -0.452590 2.363150 
					CHANNELS 3 Zrotation Yrotation Xrotation
					End Site
					{
						OFFSET 0.000000 0.000000 0.000000 
					}
				}
			}
		}
	}
	JOINT Spine
	{
		OFFSET 0.028270 2.035590 -0.193380 
		CHANNELS 3 Zrotation Yrotation Xrotation
		JOINT Spine1
		{
			OFFSET 0.056720 2.048850 -0.042750 
			CHANNELS 3 Zrotation Yrotation Xrotation
			JOINT Neck1
			{
				OFFSET -0.054170 1.746240 0.172020 
				CHANNELS 3 Zrotation Yrotation Xrotation
				JOINT Head
				{
					OFFSET 0.104070 1.761360 -0.123970 
					CHANNELS 3 Zrotation Yrotation Xrotation
					End Site
					{
						OFFSET 0.000000 0.000000 0.000000 
					}
				}
			}
			JOINT LeftArm
			{
				OFFSET 3.362410 1.200890 -0.311210 
				CHANNELS 3 Zrotation Yrotation Xrotation
				JOINT LeftForeArm
				{
					OFFSET 4.983000 -0.000000 -0.000000 
					CHANNELS 3 Zrotation Yrotation Xrotation
					JOINT LeftHand
					{
						OFFSET 3.483560 -0.000000 -0.000000 
						CHANNELS 3 Zrotation Yrotation Xrotation
						JOINT LeftHandIndex1
						{
							OFFSET 0.715260 -0.000000 -0.000000 
							CHANNELS 3 Zrotation Yrotation Xrotation
							End Site
							{
								OFFSET 0.000000 0.000000 0.000000 
							}
						}
					}
				}
			}
			JOINT RightArm
			{
				OFFSET -3.136600 1.374050 -0.404650 
				CHANNELS 3 Zrotation Yrotation Xrotation
				JOINT RightForeArm
				{
					OFFSET -5.241900 -0.000000 -0.000000 
					CHANNELS 3 Zrotation Yrotation Xrotation
					JOINT RightHand
					{
						OFFSET -3.444170 -0.000000 -0.000000 
						CHANNELS 3 Zrotation Yrotation Xrotation
						JOINT RightHandIndex1
						{
							OFFSET -0.622530 -0.000000 -0.000000 
							CHANNELS 3 Zrotation Yrotation Xrotation
							End Site
							{
								OFFSET 0.000000 0.000000 0.000000 
							}
						}
					}
				}
			}
		}
	}
}
MOTION
Frames: 6
Frame Time: 0.041667
0.240299 18.371561 8.803037 -8.693949 -2.208691 15.179749 -19.630282 -44.026052 18.591901 -3.904209 -2.403928 -3.708119 -14.692513 46.989315 -36.386529 1.123400 6.732400 18.925100 21.222480 30.529275 1.766063 3.599809 -0.690107 2.459977 8.450788 -26.552210 -3.934844 -0.008100 0.580200 -1.594200 13.003783 6.975771 -33.040085 -9.178834 -0.113837 -7.182377 18.296222 -15.140983 30.507974 2.645000 -4.975000 8.302100 -85.477249 13.685782 -0.064722 14.521629 -17.035898 -3.190255 2.486012 -0.833098 5.814547 -7.125000 0.000000 0.000000 82.076004 -15.853637 -1.643386 -14.183022 19.002067 -3.078833 0.901597 1.766600 39.828281 7.125000 0.000000 0.000000 
0.241666 18.370930 8.803668 -8.959520 -2.074838 15.062095 -19.648672 -44.032533 18.745519 -3.913324 -2.443951 -3.708628 -14.706891 46.980550 -36.365043 1.116200 6.711700 18.864100 21.289990 30.506401 1.796519 3.600318 -0.683843 2.420732 8.439038 -26.536268 -3.977407 -0.007900 0.575600 -1.581800 15.380059 7.342897 -32.213370 -9.783497 -0.359959 -7.372669 18.104391 -14.954905 30.558799 2.720400 -4.948500 8.358000 -86.201286 13.762997 -0.008616 14.266277 -16.616444 -2.999727 2.134890 -0.485740 8.613346 -7.125000 0.000000 0.000000 81.591907 -15.692521 -0.934023 -14.160705 19.011420 -3.075348 0.894153 1.774389 39.842720 7.125000 0.000000 0.000000 
0.241771 18.371351 8.801460 -9.253264 -1.949272 14.963804 -19.538210 -44.005961 18.777712 -3.922881 -2.481786 -3.700777 -14.669668 46.903362 -36.376605 1.132600 6.759100 19.003500 21.371054 30.521365 1.769247 3.596935 -0.703439 2.440836 8.428829 -26.526746 -4.011724 -0.005000 0.456500 -1.254200 17.786153 7.682890 -31.339258 -10.359060 -0.615822 -7.619532 17.873464 -14.746564 30.560051 2.796100 -4.919300 8.408400 -86.957268 13.832118 0.049951 14.021182 -16.221351 -2.840016 1.788196 -0.105766 11.417437 -7.125000 0.000000 0.000000 81.103093 -15.495112 -0.220139 -14.122865 19.003257 -3.065544 0.890783 1.773019 39.855072 7.125000 0.000000 0.000000 
0.242507 18.371666 8.799567 -9.446275 -1.849717 14.880768 -19.484826 -43.929296 18.742908 -3.928760 -2.508888 -3.671824 -14.673678 46.851722 -36.267646 1.136400 6.770100 19.036200 21.345755 30.497878 1.702731 3.593536 -0.721305 2.455927 8.420687 -26.515058 -3.994576 -0.005100 0.461000 -1.266800 19.951165 7.905472 -30.478416 -10.806027 -0.871639 -7.865913 17.589523 -14.496381 30.554605 2.860600 -4.873500 8.452200 -87.743319 13.887321 0.054703 13.771937 -15.822570 -2.700640 1.417682 0.298948 14.413676 -7.125000 0.000000 0.000000 80.601465 -15.332008 0.583604 -14.120654 19.044836 -3.070826 0.886228 1.771512 39.753942 7.125000 0.000000 0.000000 
0.239983 18.375031 8.801144 -9.188859 -1.932385 14.911290 -19.956347 -44.076586 18.816351 -3.944135 -2.513888 -3.605757 -14.576269 46.817194 -36.602951 1.165200 6.852300 19.278500 20.789747 30.639425 1.578601 3.593022 -0.716799 2.394873 8.478143 -26.625090 -3.975137 -0.001300 0.234400 -0.644000 21.430714 7.914926 -29.856765 -10.809316 -1.080730 -7.974319 17.306443 -14.257991 30.644325 2.920200 -4.826500 8.519600 -88.541640 14.077321 0.770451 13.663598 -15.572248 -2.618899 0.939149 0.664353 16.809291 -7.125000 0.000000 0.000000 79.948391 -15.090811 1.559425 -13.960952 18.894401 -3.019989 0.894572 1.757524 39.518430 7.125000 0.000000 0.000000 
0.233358 18.382603 8.826910 -9.218137 -1.732278 15.089705 -20.216278 -44.389757 18.802314 -3.957235 -2.547306 -3.568952 -14.495337 46.769075 -36.880118 1.177200 6.886500 19.379500 20.338360 30.698541 1.397229 3.601858 -0.648045 2.151411 8.573713 -26.871737 -3.988954 -0.001300 -0.236200 0.649000 24.979955 7.935980 -28.321074 -11.132026 -1.587122 -7.986118 16.958261 -13.669589 30.605152 3.089300 -4.644000 8.636300 -90.154746 14.489952 2.217616 13.538110 -15.253229 -2.578855 0.053792 1.278340 20.738507 -7.125000 0.000000 0.000000 78.657622 -14.548413 3.399126 -13.533887 18.436235 -2.878694 0.920980 1.717308 39.156422 7.125000 0.000000 0.000000 
